<?xml version="1.0" encoding="iso-8859-1"?>
<!-- Generator: Adobe Illustrator 19.0.0, SVG Export Plug-In . SVG Version: 6.00 Build 0)  -->
<svg version="1.1" id="Layer_1" xmlns="http://www.w3.org/2000/svg" xmlns:xlink="http://www.w3.org/1999/xlink" x="0px" y="0px"
	 viewBox="0 0 186.368 186.368" style="enable-background:new 0 0 186.368 186.368;" xml:space="preserve">
<g>
	<g>
		<g>
			<path d="M183.927,119.526c-10.472-3.479-22.337-6.286-35.08-8.436l4.234-11.109l1.174,0.062c0.063,0.004,0.127,0.004,0.19,0.004
				c0.613,0,1.217-0.157,1.752-0.46l21.612-12.195c1.717-0.968,2.321-3.144,1.355-4.858c-0.968-1.717-3.139-2.323-4.858-1.355
				l-20.709,11.686l-38.817-2.071c-0.17-0.034-0.319-0.117-0.497-0.126c-0.19-0.015-0.356,0.056-0.539,0.071l-19.339-1.032
				c-1.919-0.07-3.646,1.407-3.751,3.371c-0.104,1.968,1.405,3.646,3.371,3.754l16.344,0.871l-0.448,9.171
				c-7.067-0.382-14.23-0.627-21.506-0.627c-8.739,0-17.323,0.309-25.728,0.854L38.872,58.726H67.75
				c1.969,0,3.566-1.595,3.566-3.566c0-19.661-15.996-35.658-35.658-35.658S0,35.499,0,55.16c0,1.971,1.597,3.566,3.566,3.566
				h27.506c0.059,0.215,0.068,0.436,0.17,0.644l23.765,48.276c-17.885,1.531-34.712,4.3-49.724,8.223
				c-1.905,0.498-3.045,2.448-2.547,4.353c0.496,1.905,2.436,3.03,4.351,2.549c23.498-6.143,51.621-9.392,81.326-9.392
				c35.075,0,68.196,4.586,93.263,12.916c0.375,0.122,0.752,0.181,1.125,0.181c1.494,0,2.887-0.947,3.385-2.441
				C186.806,122.165,185.795,120.149,183.927,119.526z M7.353,51.595c1.762-14.051,13.784-24.961,28.305-24.961
				s26.543,10.91,28.305,24.961H7.353z M141.648,109.947c-7.924-1.146-16.154-2.027-24.607-2.642l0.45-9.222l28.108,1.498
				L141.648,109.947z"/>
			<path d="M167.593,134.774c-1.969,0-3.566,1.595-3.566,3.566c0,11.798-9.597,21.395-21.395,21.395
				c-11.798,0-21.395-9.597-21.395-21.395c0-1.971-1.597-3.566-3.566-3.566s-3.566,1.595-3.566,3.566
				c0,11.798-9.597,21.395-21.395,21.395c-11.798,0-21.395-9.597-21.395-21.395c0-1.971-1.597-3.566-3.566-3.566
				c-1.969,0-3.566,1.595-3.566,3.566c0,11.798-9.597,21.395-21.395,21.395c-11.798,0-21.395-9.597-21.395-21.395
				c0-1.971-1.597-3.566-3.566-3.566s-3.566,1.595-3.566,3.566c0,15.729,12.797,28.526,28.526,28.526
				c10.733,0,20.093-5.964,24.961-14.747c4.868,8.783,14.228,14.747,24.961,14.747c10.733,0,20.093-5.964,24.961-14.747
				c4.868,8.783,14.228,14.747,24.961,14.747c15.729,0,28.526-12.797,28.526-28.526
				C171.159,136.369,169.562,134.774,167.593,134.774z"/>
		</g>
	</g>
</g>
<g>
</g>
<g>
</g>
<g>
</g>
<g>
</g>
<g>
</g>
<g>
</g>
<g>
</g>
<g>
</g>
<g>
</g>
<g>
</g>
<g>
</g>
<g>
</g>
<g>
</g>
<g>
</g>
<g>
</g>
</svg>
