<?xml version="1.0" encoding="iso-8859-1"?>
<!-- Generator: Adobe Illustrator 19.0.0, SVG Export Plug-In . SVG Version: 6.00 Build 0)  -->
<svg version="1.1" id="Capa_1" xmlns="http://www.w3.org/2000/svg" xmlns:xlink="http://www.w3.org/1999/xlink" x="0px" y="0px"
	 viewBox="0 0 54 54" style="enable-background:new 0 0 54 54;" xml:space="preserve">
<g>
	<path d="M52,7v6.186C51.684,13.073,51.348,13,50.993,13h-2.344C48.867,12.544,49,12.039,49,11.5C49,9.57,47.43,8,45.5,8h-20
		C23.57,8,22,9.57,22,11.5c0,0.539,0.133,1.044,0.351,1.5H14V7h-2v6H3.007C2.652,13,2.316,13.073,2,13.186V7H0v8.998v2.004V25v2v4v2
		v6.998v2.004V47h2v-2.186C2.316,44.927,2.652,45,3.007,45H12v2h2v-2h36.993c0.355,0,0.691-0.073,1.007-0.186V47h2v-4.998v-2.004
		V18.002v-2.004V7H52z M24,11.5c0-0.827,0.673-1.5,1.5-1.5h20c0.827,0,1.5,0.673,1.5,1.5S46.327,13,45.5,13h-20
		C24.673,13,24,12.327,24,11.5z M25.5,15h20h5.493C51.548,15,52,15.447,52,15.998v2.004C52,18.553,51.548,19,50.993,19H14v-4H25.5z
		 M24,35.5c0-0.827,0.673-1.5,1.5-1.5h20c0.827,0,1.5,0.673,1.5,1.5S46.327,37,45.5,37h-20C24.673,37,24,36.327,24,35.5z M45.5,32
		h-20c-1.93,0-3.5,1.57-3.5,3.5c0,0.539,0.133,1.044,0.351,1.5H14v-4v-2v-4v-2v-4h35v14.5V37h-0.351
		C48.867,36.544,49,36.039,49,35.5C49,33.57,47.43,32,45.5,32z M5,33h7v4H5V33z M5,21h7v4H5V21z M12,27v4H5v-4H12z M51,20.999
		c0.352-0.001,0.686-0.073,1-0.185v16.371c-0.314-0.112-0.648-0.184-1-0.185V20.999z M3.007,15H12v4H3.007
		C2.452,19,2,18.553,2,18.002v-2.004C2,15.447,2.452,15,3.007,15z M2,20.814c0.314,0.112,0.648,0.184,1,0.185V25H2V20.814z M2,27h1
		v4H2V27z M3,33v4.001c-0.352,0.001-0.686,0.073-1,0.185V33H3z M3.007,43C2.452,43,2,42.553,2,42.002v-2.004
		C2,39.447,2.452,39,3.007,39H12v4H3.007z M50.993,43H14v-4h11.5h20h5.493C51.548,39,52,39.447,52,39.998v2.004
		C52,42.553,51.548,43,50.993,43z"/>
</g>
<g>
</g>
<g>
</g>
<g>
</g>
<g>
</g>
<g>
</g>
<g>
</g>
<g>
</g>
<g>
</g>
<g>
</g>
<g>
</g>
<g>
</g>
<g>
</g>
<g>
</g>
<g>
</g>
<g>
</g>
</svg>
